<?xml version="1.0" standalone="no"?>
<!DOCTYPE svg PUBLIC "-//W3C//DTD SVG 20010904//EN"
 "http://www.w3.org/TR/2001/REC-SVG-20010904/DTD/svg10.dtd">
<svg version="1.0" xmlns="http://www.w3.org/2000/svg"
 width="400.000000pt" height="400.000000pt" viewBox="0 0 400.000000 400.000000"
 preserveAspectRatio="xMidYMid meet">
<metadata>
Created by potrace 1.11, written by Peter Selinger 2001-2013
</metadata>
<g transform="translate(0.000000,400.000000) scale(0.100000,-0.100000)"
fill="#000000" stroke="none">
<path d="M400 2790 c0 -5 -7 -10 -15 -10 -20 0 -105 -85 -105 -105 0 -8 -4
-15 -10 -15 -5 0 -10 -9 -10 -20 0 -11 -4 -20 -10 -20 -5 0 -10 -9 -10 -19 0
-11 -5 -23 -10 -26 -5 -3 -10 -17 -10 -31 0 -13 -4 -24 -10 -24 -6 0 -10 -27
-10 -60 0 -33 -4 -60 -10 -60 -6 0 -10 -30 -10 -70 0 -40 -4 -70 -10 -70 -13
0 -13 -43 1 -57 7 -7 9 -33 4 -74 -13 -127 -16 -349 -6 -349 6 0 11 -22 11
-50 0 -27 5 -50 10 -50 6 0 10 -18 10 -40 0 -22 5 -40 10 -40 6 0 10 -9 10
-20 0 -11 5 -20 10 -20 6 0 10 -37 10 -90 0 -53 4 -90 10 -90 6 0 10 -22 10
-50 0 -27 5 -50 10 -50 6 0 10 -33 10 -80 0 -47 4 -80 10 -80 6 0 10 -20 10
-44 0 -25 5 -48 10 -51 13 -8 13 -65 0 -65 -5 0 -10 -18 -10 -40 0 -22 -4 -40
-10 -40 -5 0 -10 -24 -10 -53 0 -39 -5 -59 -20 -75 -11 -12 -20 -33 -20 -47 0
-14 -4 -25 -10 -25 -5 0 -10 -13 -10 -30 0 -16 -4 -30 -10 -30 -5 0 -10 -22
-10 -50 0 -27 -4 -50 -10 -50 -6 0 -10 -30 -10 -70 0 -40 -4 -70 -10 -70 -5 0
-10 -13 -10 -30 0 -16 -4 -30 -8 -30 -5 0 -9 -36 -11 -80 -1 -51 2 -80 9 -80
5 0 10 -9 10 -20 0 -11 -4 -20 -10 -20 -5 0 -10 -13 -10 -30 0 -16 5 -30 10
-30 6 0 10 -13 10 -30 l0 -30 1890 0 1890 0 0 54 c0 30 -4 58 -10 61 -5 3 -10
33 -10 66 0 33 -4 59 -10 59 -5 0 -10 23 -10 50 0 28 -4 50 -10 50 -6 0 -10
33 -10 80 0 47 -4 80 -10 80 -5 0 -10 18 -10 40 0 22 -4 40 -10 40 -5 0 -10
14 -10 30 0 17 -4 30 -10 30 -5 0 -10 9 -10 20 0 11 -4 20 -10 20 -5 0 -10 13
-10 28 0 16 -8 34 -20 42 -11 8 -20 21 -20 28 0 8 -14 27 -30 42 -17 15 -30
35 -30 44 0 9 -4 16 -10 16 -5 0 -10 9 -10 20 0 11 -4 20 -10 20 -6 0 -10 37
-10 90 0 53 4 90 10 90 6 0 10 63 10 170 0 107 4 170 10 170 6 0 10 18 10 40
0 22 4 40 9 40 5 0 11 19 15 43 10 84 18 117 27 117 5 0 9 90 9 200 0 132 4
200 10 200 7 0 9 60 6 183 -5 203 -13 297 -27 311 -5 6 -9 18 -9 28 0 10 -4
18 -10 18 -5 0 -10 7 -10 15 0 20 -65 85 -85 85 -8 0 -15 5 -15 10 0 6 -13 10
-30 10 -16 0 -30 -4 -30 -10 0 -5 -13 -10 -30 -10 -16 0 -30 -4 -30 -10 0 -5
-9 -10 -20 -10 -11 0 -20 -4 -20 -10 0 -5 -7 -10 -16 -10 -8 0 -37 -22 -64
-50 -27 -27 -53 -50 -59 -50 -6 0 -11 -4 -11 -10 0 -5 -34 -43 -75 -85 -41
-41 -75 -79 -75 -84 0 -5 -27 -37 -60 -70 -33 -34 -60 -66 -60 -71 0 -16 -268
-280 -285 -280 -8 0 -15 -4 -15 -10 0 -5 -9 -10 -20 -10 -11 0 -20 -4 -20 -10
0 -5 -9 -10 -20 -10 -11 0 -20 -4 -20 -10 0 -5 -21 -10 -46 -10 -39 0 -51 5
-77 33 -19 20 -32 27 -34 20 -3 -8 -21 -13 -43 -13 -21 0 -41 -6 -44 -12 -5
-10 -7 -10 -12 0 -3 6 -14 12 -24 12 -10 0 -21 6 -24 13 -5 10 -7 10 -12 0 -7
-15 -64 -18 -64 -3 0 6 -29 10 -68 10 -56 0 -70 3 -82 20 -15 21 -50 28 -50
10 0 -5 -13 -10 -30 -10 -16 0 -30 -4 -30 -10 0 -5 -9 -10 -20 -10 -11 0 -20
5 -20 10 0 18 -35 11 -50 -10 -17 -23 -69 -27 -100 -7 -15 8 -23 9 -28 1 -13
-21 -51 -34 -96 -34 -25 0 -46 5 -46 10 0 6 -18 10 -40 10 -22 0 -40 -4 -40
-10 0 -5 -11 -10 -25 -10 -14 0 -25 -4 -25 -10 0 -6 -28 -10 -63 -10 -51 0
-65 4 -77 20 -8 11 -22 20 -32 20 -10 0 -18 5 -18 10 0 6 -7 10 -15 10 -17 0
-125 104 -125 120 0 6 -27 38 -60 70 -33 32 -60 64 -60 70 0 6 -18 29 -40 50
-22 21 -40 44 -40 50 0 7 -14 25 -30 40 -16 15 -30 34 -30 42 0 7 -9 20 -20
28 -11 8 -20 20 -20 26 0 6 -13 25 -30 42 -16 18 -30 37 -30 43 0 14 -149 159
-164 159 -6 0 -18 9 -26 20 -8 11 -22 20 -32 20 -10 0 -18 5 -18 10 0 6 -9 10
-20 10 -11 0 -20 5 -20 10 0 6 -33 10 -80 10 -47 0 -80 -4 -80 -10z m3206
-865 c14 -13 14 -17 0 -30 -19 -19 -33 -19 -52 0 -13 12 -13 17 -2 29 17 20
36 20 54 1z m-102 -41 c31 -12 8 -64 -28 -64 -20 0 -22 56 -3 63 6 3 13 6 14
6 1 1 8 -2 17 -5z m-3164 -94 c0 -34 -5 -37 -26 -15 -13 12 -13 17 -2 29 20
23 28 19 28 -14z m100 20 c0 -5 9 -10 20 -10 16 0 20 -7 20 -30 0 -33 -21 -40
-46 -16 -16 17 -19 66 -4 66 6 0 10 -4 10 -10z m3180 -6 c0 -18 -23 -44 -40
-44 -6 0 -18 7 -26 15 -13 12 -13 17 -2 29 18 21 68 21 68 0z m-156 0 c18 -7
23 -84 6 -84 -5 0 -10 -7 -10 -16 0 -26 -27 -44 -67 -44 -22 0 -44 -5 -51 -12
-6 -6 -15 -8 -19 -3 -5 4 -2 10 5 12 6 3 12 11 12 20 0 25 27 43 64 43 28 0
36 4 36 18 0 10 -9 24 -20 32 -26 19 -25 28 3 33 12 2 23 5 24 6 1 0 8 -2 17
-5z m-2944 -74 c0 -16 5 -30 10 -30 14 0 12 -38 -2 -43 -7 -2 -10 -8 -5 -13 4
-4 35 -2 69 5 44 9 63 10 66 2 2 -6 12 -11 23 -11 11 0 19 -7 19 -16 0 -19
-24 -44 -42 -44 -8 0 -20 -9 -28 -20 -10 -14 -26 -20 -50 -20 -34 0 -36 2 -50
48 -7 26 -22 54 -32 63 -20 18 -24 44 -8 54 6 3 10 17 10 31 0 13 5 24 10 24
6 0 10 -13 10 -30z m2820 -151 c0 -17 -5 -20 -37 -17 -27 2 -39 8 -41 21 -3
14 4 17 37 17 35 0 41 -3 41 -21z m-2875 -35 c33 -34 48 -84 25 -84 -5 0 -10
5 -10 10 0 6 -20 10 -45 10 -35 0 -52 6 -70 25 -14 13 -25 31 -25 40 0 17 25
21 35 5 10 -17 25 -11 25 10 0 30 26 24 65 -16z m3061 2 c21 -22 17 -35 -20
-72 -26 -26 -42 -34 -70 -34 -31 0 -36 3 -36 23 0 27 41 77 64 77 9 0 16 5 16
10 0 15 29 12 46 -4z m-486 -396 c0 -5 14 -10 30 -10 17 0 30 -4 30 -10 0 -5
7 -10 15 -10 20 0 125 -105 125 -125 0 -8 5 -15 10 -15 6 0 10 -33 10 -80 0
-47 -4 -80 -10 -80 -5 0 -10 -7 -10 -15 0 -20 -65 -85 -85 -85 -8 0 -15 -4
-15 -10 0 -5 -13 -10 -30 -10 -16 0 -30 -4 -30 -10 0 -6 -42 -10 -106 -10
-105 0 -106 0 -134 30 -15 17 -32 30 -37 30 -16 0 -63 47 -63 64 0 9 -4 16
-10 16 -5 0 -10 9 -10 20 0 11 -4 20 -10 20 -5 0 -10 18 -10 40 0 22 -4 40
-10 40 -5 0 -10 9 -10 20 0 11 5 20 10 20 6 0 10 7 10 15 0 34 76 125 105 125
8 0 15 5 15 10 0 6 14 10 30 10 17 0 30 5 30 10 0 6 33 10 80 10 47 0 80 -4
80 -10z m-1595 -20 c3 -5 26 -10 51 -10 24 0 44 -4 44 -10 0 -5 8 -10 18 -10
10 0 24 -9 32 -20 8 -11 20 -20 28 -20 18 0 82 -66 82 -85 0 -8 5 -15 10 -15
6 0 10 -9 10 -20 0 -11 5 -20 10 -20 6 0 10 -32 10 -76 0 -72 -2 -78 -30 -104
-16 -15 -30 -33 -30 -40 0 -34 -27 -40 -184 -40 -97 0 -156 4 -156 10 0 6 -8
10 -18 10 -10 0 -24 9 -32 20 -8 11 -20 20 -28 20 -18 0 -82 66 -82 85 0 8 -4
15 -10 15 -5 0 -10 13 -10 29 0 17 -5 33 -10 36 -7 4 -7 12 0 25 5 10 10 30
10 44 0 14 5 26 10 26 6 0 10 7 10 15 0 20 65 85 85 85 8 0 15 5 15 10 0 6 9
10 20 10 11 0 20 5 20 10 0 6 17 10 38 10 20 0 44 5 52 10 19 12 27 12 35 0z"/>
<path d="M2960 990 c0 -23 4 -30 20 -30 16 0 20 7 20 30 0 23 -4 30 -20 30
-16 0 -20 -7 -20 -30z"/>
<path d="M2980 859 c0 -14 5 -19 17 -17 26 5 29 38 4 38 -15 0 -21 -6 -21 -21z"/>
<path d="M1440 1020 c0 -11 -4 -20 -10 -20 -17 0 -12 -149 5 -167 9 -8 17 -14
18 -12 1 2 8 14 15 26 6 13 12 39 12 58 0 19 5 35 10 35 6 0 10 9 10 20 0 11
-4 20 -10 20 -5 0 -10 7 -10 16 0 15 -23 44 -34 44 -3 0 -6 -9 -6 -20z"/>
</g>
</svg>
